# xmcd
#
# Track frame offsets:
#	150
#	9768
#	22284
#	34321
#	45302
#	56789
#	70858
#	81516
#	97522
#	107478
#	120389
#	130778
#	142080
#	155052
#	164595
#	177042
#	186070
#	202339
#	211993
#	224613
#	236683
#	249995
#	262178
#	273954
#
# Disc length: 3803 seconds
# Revision: 0
# Processed by: cddbd v1.5.2PL0 Copyright (c) Steve Scherf et al.
# Submitted via: dBpowerAMP V12.0
#
DISCID=5f0ed918
DTITLE=Various Artist - Blue Beat - The Singles - Vol 2 Disc 2
DYEAR=2013
DGENRE=R&B
TTITLE0=Monty And Roy Lumbago And His Orchestra - In And Out The Window
TTITLE1=Monty And Roy Lumbago And His Orchestra - Tra La La Boogie
TTITLE2=Derrick Morgan With Drumbago All Stars - Shake A Leg
TTITLE3=Derrick Morgan With Drumbago All Stars - Golden Rule
TTITLE4=Monty And Roy Drumbago And His Orchestra - Sweetie Pie
TTITLE5=Roland Alphonso - Green Door
TTITLE6=JE Stick WIth Drumbago All Stars - Boss Girl
TTITLE7=Count Ossie Afro Combo - Cassavubu
TTITLE8=Derrick And Patsy Drumbago And His Harmonisers - Let The Good Times Rool
TTITLE9=Derrick And Patsy Drumbago And His Harmonisers - Baby Please Don't Leave Me
TTITLE10=Sir D's Group With K Brown - Hey Diddle Diddle
TTITLE11=Sir D's Group With Mossman and Zeddse - Pocket Money
TTITLE12=Clancy Eccles - Freedom
TTITLE13=Clancy Eccles - More Proof
TTITLE14=The Mellow Cats And Count Ossie and The Warricka's - Rock A Man Soul
TTITLE15=Monto and The Cyclones - Lazy Lou
TTITLE16=B Gabbidon and Buster's Group - Warpaint Boogie
TTITLE17=Chuck and Dobbie and Buster's Group - I Was Wrong
TTITLE18=Laurel Aitken and The Blue Beats - Mighty Redeemer
TTITLE19=Laurel Aitken and The Blue Beats - Please Don't Leave Me
TTITLE20=Azzie Lawrence and The Melobeats - So Far Apart
TTITLE21=Azzie Lawrence and The Melobeats - Palms Of Vistory
TTITLE22=Shenley and Annette - Million Dollar Baby
TTITLE23=Shenley and Annette - First Time I Met You
EXTD=
EXTT0=
EXTT1=
EXTT2=
EXTT3=
EXTT4=
EXTT5=
EXTT6=
EXTT7=
EXTT8=
EXTT9=
EXTT10=
EXTT11=
EXTT12=
EXTT13=
EXTT14=
EXTT15=
EXTT16=
EXTT17=
EXTT18=
EXTT19=
EXTT20=
EXTT21=
EXTT22=
EXTT23=
PLAYORDER=
